<svg id="visual" viewBox="0 0 1660 600" width="1660" height="600" xmlns="http://www.w3.org/2000/svg" xmlns:xlink="http://www.w3.org/1999/xlink" version="1.1"><path d="M0 376L129 363L257 418L386 353L514 382L643 447L771 409L900 432L900 601L771 601L643 601L514 601L386 601L257 601L129 601L0 601Z" fill="#005a95"></path><path d="M0 475L129 399L257 462L386 451L514 462L643 398L771 476L900 457L900 601L771 601L643 601L514 601L386 601L257 601L129 601L0 601Z" fill="#0044dc"></path><path d="M0 449L129 486L257 493L386 458L514 497L643 445L771 483L900 474L900 601L771 601L643 601L514 601L386 601L257 601L129 601L0 601Z" fill="#0a11f5"></path><path d="M0 514L129 506L257 486L386 506L514 530L643 536L771 534L900 505L900 601L771 601L643 601L514 601L386 601L257 601L129 601L0 601Z" fill="#0044dc"></path><path d="M0 540L129 561L257 559L386 542L514 535L643 540L771 539L900 539L900 601L771 601L643 601L514 601L386 601L257 601L129 601L0 601Z" fill="#005a95"></path></svg>