<?xml version="1.0" standalone="no"?>
<!DOCTYPE svg PUBLIC "-//W3C//DTD SVG 20010904//EN"
 "http://www.w3.org/TR/2001/REC-SVG-20010904/DTD/svg10.dtd">
<svg version="1.0" xmlns="http://www.w3.org/2000/svg"
 width="200.000000pt" height="100.000000pt" viewBox="0 0 200.000000 100.000000"
 preserveAspectRatio="xMidYMid meet">

<g transform="translate(0.000000,100.000000) scale(0.100000,-0.100000)"
fill="#000000" stroke="none">
<path d="M1063 945 c-55 -24 -73 -49 -73 -104 0 -41 4 -53 26 -70 53 -42 167
-39 210 4 20 20 24 35 24 80 l0 55 53 0 c60 0 98 -16 112 -47 8 -19 19 -23 75
-25 56 -3 65 -6 68 -23 1 -11 -4 -29 -12 -40 -12 -17 -30 -20 -148 -25 -97 -5
-142 -11 -165 -23 -47 -25 -74 -84 -77 -168 -3 -96 -16 -106 -66 -48 -24 28
-60 56 -92 70 -47 22 -67 24 -188 24 -130 0 -137 -1 -195 -30 -36 -19 -68 -43
-80 -62 -23 -37 -44 -48 -59 -33 -16 16 33 147 72 188 24 27 29 38 20 44 -21
13 -29 10 -67 -29 -25 -26 -46 -63 -65 -116 -27 -75 -28 -79 -11 -97 13 -15
31 -20 68 -20 47 0 52 3 95 50 58 64 116 85 232 84 107 0 179 -30 229 -93 30
-37 37 -41 77 -41 75 0 84 10 84 93 0 73 23 145 51 163 8 5 73 11 144 15 174
8 205 24 205 105 l0 34 -63 0 c-52 0 -67 4 -83 21 -32 36 -74 51 -156 57 -43
2 -81 9 -84 13 -8 14 -126 10 -161 -6z"/>
<path d="M400 887 c0 -7 21 -36 46 -65 65 -74 102 -83 322 -80 239 4 230 22
-13 28 -216 6 -223 8 -278 86 -21 30 -38 44 -54 44 -13 0 -23 -6 -23 -13z"/>
<path d="M1293 868 c2 -7 12 -13 22 -13 10 0 20 6 23 13 2 7 -6 12 -23 12 -17
0 -25 -5 -22 -12z"/>
<path d="M1307 674 c-15 -15 -6 -22 41 -28 52 -7 99 -37 88 -55 -5 -8 -22 -10
-53 -5 -36 5 -45 4 -41 -7 11 -33 120 -32 141 3 15 23 2 45 -40 67 -43 21
-124 37 -136 25z"/>
<path d="M714 510 c4 -22 1 -32 -9 -36 -27 -11 -16 -24 19 -24 46 0 62 21 46
60 -9 22 -19 30 -37 30 -23 0 -25 -3 -19 -30z"/>
<path d="M165 376 c-14 -10 -20 -30 -23 -76 -4 -50 -8 -63 -23 -67 -25 -7 -24
-43 1 -50 17 -4 20 -14 20 -57 0 -60 20 -96 54 -96 31 0 41 27 16 42 -16 10
-20 24 -20 65 0 28 -5 55 -10 58 -7 4 -7 12 0 25 5 10 10 41 10 69 0 37 4 51
14 51 16 0 25 19 19 38 -6 16 -35 15 -58 -2z"/>
<path d="M876 374 c-3 -9 -6 -31 -6 -50 0 -31 -2 -33 -28 -28 -21 4 -36 -1
-60 -21 -27 -22 -32 -34 -32 -69 0 -63 32 -90 113 -92 39 -2 64 2 69 9 9 14
11 228 2 251 -8 21 -50 21 -58 0z m-22 -140 c18 -7 22 -49 6 -59 -19 -12 -50
6 -50 29 0 34 12 42 44 30z"/>
<path d="M1394 365 c-3 -14 -4 -71 -2 -126 4 -111 16 -133 68 -127 29 4 41 44
16 54 -13 5 -16 24 -16 99 0 110 -4 125 -36 125 -17 0 -25 -7 -30 -25z"/>
<path d="M1820 365 c0 -15 6 -25 14 -25 32 0 32 -245 0 -263 -8 -4 -14 -17
-14 -27 0 -15 7 -20 24 -20 36 0 56 35 56 96 0 43 3 53 20 57 11 3 20 14 20
25 0 11 -9 22 -20 25 -17 4 -20 14 -20 61 0 43 -5 61 -20 76 -29 29 -60 26
-60 -5z"/>
<path d="M371 274 c-26 -21 -31 -33 -31 -69 0 -36 5 -48 31 -69 52 -44 140
-28 124 23 -6 19 -12 22 -36 17 -40 -8 -59 2 -59 30 0 25 3 27 60 28 26 1 35
6 38 20 10 48 -77 62 -127 20z"/>
<path d="M557 275 c-45 -46 -42 -104 9 -144 62 -49 154 -4 154 74 0 82 -105
127 -163 70z m100 -51 c9 -24 -10 -49 -38 -49 -24 0 -36 23 -25 51 7 19 55 18
63 -2z"/>
<path d="M1007 289 c-29 -17 -49 -68 -43 -105 9 -47 48 -74 105 -74 56 0 75
11 67 37 -6 18 -13 20 -50 16 -26 -3 -46 -1 -50 6 -5 7 5 11 28 11 84 0 113
44 61 95 -26 27 -84 34 -118 14z m81 -56 c2 -9 -7 -13 -28 -13 -28 0 -31 2
-20 15 15 18 41 16 48 -2z"/>
<path d="M1223 290 c-24 -10 -53 -58 -53 -87 0 -34 37 -81 70 -88 18 -4 36 -3
42 3 7 7 16 7 28 0 10 -6 25 -8 34 -5 13 5 16 22 16 92 0 70 -3 87 -16 92 -9
3 -25 1 -35 -5 -11 -7 -20 -8 -24 -2 -7 12 -32 12 -62 0z m71 -72 c8 -14 7
-21 -6 -34 -30 -30 -75 9 -48 42 16 18 39 15 54 -8z"/>
<path d="M1539 271 c-78 -79 12 -196 115 -150 14 7 32 27 41 46 46 97 -79 180
-156 104z m96 -66 c0 -23 -5 -31 -21 -33 -27 -4 -47 21 -39 48 5 16 14 20 33
18 23 -2 27 -8 27 -33z"/>
</g>
</svg>
