<?xml version="1.0" standalone="no"?>
<!DOCTYPE svg PUBLIC "-//W3C//DTD SVG 20010904//EN"
 "http://www.w3.org/TR/2001/REC-SVG-20010904/DTD/svg10.dtd">
<svg version="1.0" xmlns="http://www.w3.org/2000/svg"
 width="126.000000pt" height="58.000000pt" viewBox="0 0 126.000000 58.000000"
 preserveAspectRatio="xMidYMid meet">

<g transform="translate(0.000000,58.000000) scale(0.100000,-0.100000)"
fill="#000000" stroke="none">
<path d="M683 511 c-49 -23 -63 -45 -63 -103 0 -54 7 -63 53 -83 47 -19 96
-19 147 1 43 17 48 27 52 104 3 45 3 45 43 48 57 5 114 -14 127 -43 10 -21 18
-24 77 -27 74 -3 86 -17 52 -59 -18 -23 -27 -24 -155 -29 -116 -5 -139 -8
-163 -26 -47 -35 -66 -79 -71 -165 -5 -94 -28 -113 -61 -51 -16 31 -77 67
-146 87 -43 13 -85 16 -164 13 -129 -4 -198 -31 -250 -97 -35 -44 -38 -46 -60
-32 -11 7 -8 22 15 82 16 41 42 89 58 107 20 23 26 36 19 43 -14 14 -65 -12
-85 -43 -21 -34 -68 -155 -68 -178 0 -26 29 -40 82 -40 48 0 65 10 91 52 9 14
42 39 73 54 48 24 70 28 143 28 131 1 186 -22 264 -113 13 -16 29 -21 65 -21
61 0 85 22 76 67 -10 50 15 143 46 175 27 27 33 28 127 28 176 1 233 27 233
106 l0 34 -70 0 c-57 0 -71 3 -79 19 -22 40 -105 61 -306 77 -46 3 -70 0 -102
-15z"/>
<path d="M20 463 c0 -3 18 -30 40 -59 60 -80 92 -89 320 -89 253 0 257 18 5
25 -215 6 -223 8 -280 83 -26 33 -43 47 -60 47 -14 0 -25 -3 -25 -7z"/>
<path d="M920 441 c0 -6 4 -12 9 -15 13 -8 42 4 35 15 -7 12 -44 12 -44 0z"/>
<path d="M926 241 c-8 -12 1 -16 56 -26 43 -7 84 -37 74 -53 -4 -8 -23 -9 -54
-5 -42 6 -46 5 -34 -9 29 -36 152 -24 152 15 0 15 -34 49 -66 65 -33 17 -120
26 -128 13z"/>
<path d="M330 106 c0 -3 5 -17 10 -31 9 -23 7 -28 -10 -32 -30 -8 -24 -23 9
-23 59 0 76 24 51 71 -9 16 -60 29 -60 15z"/>
</g>
</svg>
