<?xml version="1.0" standalone="no"?>
<!DOCTYPE svg PUBLIC "-//W3C//DTD SVG 20010904//EN"
 "http://www.w3.org/TR/2001/REC-SVG-20010904/DTD/svg10.dtd">
<svg version="1.0" xmlns="http://www.w3.org/2000/svg"
 width="200.000000pt" height="200.000000pt" viewBox="0 0 200.000000 200.000000"
 preserveAspectRatio="xMidYMid meet">

<g transform="translate(0.000000,200.000000) scale(0.100000,-0.100000)"
fill="#006faa" stroke="none">
<path d="M1053 1631 c-49 -23 -63 -45 -63 -103 0 -54 7 -63 53 -83 47 -19 96
-19 147 1 43 17 48 27 52 104 3 45 3 45 43 48 57 5 114 -14 127 -43 10 -21 18
-24 77 -27 74 -3 86 -17 52 -59 -18 -23 -27 -24 -155 -29 -116 -5 -139 -8
-163 -26 -47 -35 -66 -79 -71 -165 -5 -94 -28 -113 -61 -51 -16 31 -77 67
-146 87 -43 13 -85 16 -164 13 -129 -4 -198 -31 -250 -97 -35 -44 -38 -46 -60
-32 -11 7 -8 22 15 82 16 41 42 89 58 107 20 23 26 36 19 43 -14 14 -65 -12
-85 -43 -21 -34 -68 -155 -68 -178 0 -26 29 -40 82 -40 48 0 65 10 91 52 9 14
42 39 73 54 48 24 70 28 143 28 131 1 186 -22 264 -113 13 -16 29 -21 65 -21
61 0 85 22 76 67 -10 50 15 143 46 175 27 27 33 28 127 28 176 1 233 27 233
106 l0 34 -70 0 c-57 0 -71 3 -79 19 -22 40 -105 61 -306 77 -46 3 -70 0 -102
-15z"/>
<path d="M390 1583 c0 -3 18 -30 40 -59 60 -80 92 -89 320 -89 253 0 257 18 5
25 -215 6 -223 8 -280 83 -26 33 -43 47 -60 47 -14 0 -25 -3 -25 -7z"/>
<path d="M1290 1561 c0 -6 4 -12 9 -15 13 -8 42 4 35 15 -7 12 -44 12 -44 0z"/>
<path d="M1296 1361 c-8 -12 1 -16 56 -26 43 -7 84 -37 74 -53 -4 -8 -23 -9
-54 -5 -42 6 -46 5 -34 -9 29 -36 152 -24 152 15 0 15 -34 49 -66 65 -33 17
-120 26 -128 13z"/>
<path d="M700 1226 c0 -3 5 -17 10 -31 9 -23 7 -28 -10 -32 -30 -8 -24 -23 9
-23 59 0 76 24 51 71 -9 16 -60 29 -60 15z"/>
<path d="M135 1066 c-14 -10 -20 -30 -23 -76 -4 -50 -8 -63 -23 -67 -25 -7
-24 -43 1 -50 17 -4 20 -14 20 -57 0 -60 20 -96 54 -96 31 0 41 27 16 42 -16
10 -20 24 -20 65 0 28 -5 55 -10 58 -7 4 -7 12 0 25 5 10 10 41 10 69 0 37 4
51 14 51 16 0 25 19 19 38 -6 16 -35 15 -58 -2z"/>
<path d="M906 1064 c-3 -9 -6 -31 -6 -50 0 -31 -2 -33 -28 -28 -21 4 -36 -1
-60 -21 -27 -22 -32 -34 -32 -69 0 -64 32 -89 114 -93 58 -2 64 0 70 20 8 29
7 206 0 235 -7 26 -48 31 -58 6z m-22 -140 c23 -9 20 -51 -4 -59 -27 -8 -40 1
-40 29 0 34 12 42 44 30z"/>
<path d="M1424 1055 c-3 -14 -4 -71 -2 -126 4 -111 16 -133 68 -127 29 4 41
44 16 54 -13 5 -16 23 -16 93 0 111 -6 131 -36 131 -17 0 -25 -7 -30 -25z"/>
<path d="M1850 1055 c0 -15 6 -25 14 -25 32 0 32 -245 0 -263 -8 -4 -14 -17
-14 -27 0 -15 7 -20 24 -20 36 0 56 35 56 96 0 43 3 53 20 57 11 3 20 14 20
25 0 11 -9 22 -20 25 -17 4 -20 14 -20 61 0 43 -5 61 -20 76 -29 29 -60 26
-60 -5z"/>
<path d="M383 1051 c-48 -22 -73 -63 -73 -118 0 -76 58 -133 135 -133 55 0 96
30 79 57 -7 10 -20 17 -30 15 -77 -14 -82 -14 -103 7 -27 27 -28 82 -2 105 18
16 36 19 106 13 24 -2 31 2 33 20 6 43 -81 64 -145 34z"/>
<path d="M593 972 c-76 -59 -31 -172 68 -172 45 0 89 48 89 95 0 76 -97 124
-157 77z m94 -58 c9 -24 -10 -49 -38 -49 -24 0 -36 23 -25 51 7 19 55 18 63
-2z"/>
<path d="M1023 966 c-23 -20 -28 -32 -28 -71 0 -63 35 -95 103 -95 59 0 81 13
66 37 -8 13 -21 17 -51 15 -60 -5 -61 15 -2 20 73 7 91 47 44 93 -33 34 -93
34 -132 1z m95 -43 c2 -9 -7 -13 -28 -13 -28 0 -31 2 -20 15 15 18 41 16 48
-2z"/>
<path d="M1253 980 c-24 -10 -53 -58 -53 -87 0 -34 37 -81 70 -88 18 -4 36 -3
42 3 7 7 16 7 28 0 10 -6 25 -8 34 -5 13 5 16 22 16 92 0 70 -3 87 -16 92 -9
3 -25 1 -35 -5 -11 -7 -20 -8 -24 -2 -7 12 -32 12 -62 0z m71 -72 c8 -14 7
-21 -6 -34 -30 -30 -75 9 -48 42 16 18 39 15 54 -8z"/>
<path d="M1569 961 c-78 -79 12 -196 115 -150 37 17 58 67 45 111 -19 71 -106
92 -160 39z m96 -66 c0 -23 -5 -31 -21 -33 -27 -4 -47 21 -39 48 5 16 14 20
33 18 23 -2 27 -8 27 -33z"/>
</g>
</svg>
